<?xml version="1.0" encoding="UTF-8"?><svg id="Camada_1" xmlns="http://www.w3.org/2000/svg" viewBox="0 0 50 50"><defs><style>.cls-1{fill:#fff;}</style></defs><path class="cls-1" d="M37.54,18.88h-7.03c-.12,0-.23-.08-.27-.2l-2.17-6.69c-.45-1.38-1.67-2.27-3.12-2.27s-2.68,.89-3.12,2.27l-2.17,6.69c-.04,.12-.15,.2-.27,.2h-7.03c-1.45,0-2.68,.89-3.12,2.27s.02,2.82,1.19,3.67l5.69,4.13c.1,.07,.14,.2,.1,.32l-2.17,6.69c-.45,1.38,.02,2.82,1.19,3.67,1.17,.85,2.69,.85,3.86,0l5.69-4.14c.1-.07,.24-.07,.34,0l5.69,4.13c.59,.43,1.26,.64,1.93,.64s1.34-.21,1.93-.64c1.17-.85,1.64-2.29,1.19-3.67l-2.17-6.69c-.04-.12,0-.25,.1-.32l5.69-4.13c1.17-.85,1.64-2.29,1.19-3.67s-1.67-2.27-3.12-2.27Z"/></svg>